<?xml version="1.0" standalone="no"?>
<!DOCTYPE svg PUBLIC "-//W3C//DTD SVG 20010904//EN"
 "http://www.w3.org/TR/2001/REC-SVG-20010904/DTD/svg10.dtd">
<svg version="1.0" xmlns="http://www.w3.org/2000/svg"
 width="500.000000pt" height="500.000000pt" viewBox="0 0 500.000000 500.000000"
 preserveAspectRatio="xMidYMid meet">
<metadata>
Created by potrace 1.11, written by Peter Selinger 2001-2013
</metadata>
<g transform="translate(0.000000,500.000000) scale(0.100000,-0.100000)"
fill="#000000" stroke="none">
<path d="M460 3535 c-139 -39 -210 -137 -210 -291 0 -134 75 -241 195 -279 72
-22 213 -16 295 13 l55 19 3 141 3 142 -116 0 -115 0 0 -50 0 -50 45 0 45 0 0
-54 c0 -61 -6 -66 -78 -66 -110 1 -172 65 -174 179 -1 74 16 124 53 155 61 51
154 57 263 15 28 -10 52 -19 54 -19 1 0 2 27 2 60 l0 59 -52 16 c-77 24 -201
28 -268 10z"/>
<path d="M930 3251 l0 -291 75 0 75 0 0 110 0 110 33 0 c58 0 79 -20 132 -120
l50 -95 78 -3 c42 -2 77 0 77 3 0 24 -117 230 -141 247 l-29 21 30 19 c69 42
92 142 47 209 -41 62 -81 73 -264 77 l-163 4 0 -291z m265 167 c47 -21 44
-100 -5 -125 -14 -7 -44 -13 -67 -13 l-43 0 0 75 0 75 45 0 c24 0 56 -5 70
-12z"/>
<path d="M1582 3252 c-56 -152 -102 -283 -102 -290 0 -10 18 -12 72 -10 l73 3
19 53 19 53 115 -3 115 -3 17 -50 17 -50 63 -3 c34 -2 68 -1 75 2 9 3 -19 90
-93 290 l-106 286 -90 0 -91 0 -103 -278z m262 -59 c7 -22 6 -23 -69 -23 -57
0 -75 3 -72 13 3 6 20 56 38 110 l33 98 32 -88 c17 -49 35 -98 38 -110z"/>
<path d="M2150 3245 l0 -287 163 5 c180 5 217 13 279 60 65 50 100 126 100
219 0 127 -51 212 -157 260 -44 20 -70 23 -217 26 l-168 4 0 -287z m311 149
c58 -34 74 -67 74 -149 0 -59 -4 -79 -21 -102 -32 -43 -75 -63 -148 -70 l-66
-6 0 178 0 178 65 -5 c36 -3 78 -14 96 -24z"/>
<path d="M2810 3245 l0 -285 75 0 75 0 0 285 0 285 -75 0 -75 0 0 -285z"/>
<path d="M3100 3245 l0 -285 205 0 205 0 0 55 0 55 -130 0 -130 0 0 65 0 65
120 0 120 0 0 55 0 55 -120 0 -120 0 0 55 0 55 125 0 125 0 0 55 0 55 -200 0
-200 0 0 -285z"/>
<path d="M3640 3245 l0 -285 70 0 70 0 0 192 c0 113 4 188 9 183 5 -6 52 -92
106 -192 l97 -183 84 0 84 0 0 285 0 285 -70 0 -70 0 -2 -192 -3 -191 -101
189 -101 189 -86 3 -87 3 0 -286z"/>
<path d="M4230 3475 l0 -55 95 0 95 0 0 -230 0 -230 75 0 75 0 0 230 0 230 95
0 95 0 0 55 0 55 -265 0 -265 0 0 -55z"/>
<path d="M1560 1871 l0 -291 75 0 75 0 0 111 0 112 45 -6 c25 -2 54 -12 63
-20 10 -9 37 -57 62 -106 l44 -91 78 0 c43 0 78 2 78 5 0 23 -110 217 -137
243 -19 17 -28 32 -21 32 8 0 29 16 48 35 29 30 34 43 38 92 3 48 0 64 -20 93
-42 63 -81 74 -265 78 l-163 4 0 -291z m265 167 c47 -21 44 -100 -5 -125 -14
-7 -44 -13 -67 -13 l-43 0 0 75 0 75 45 0 c24 0 56 -5 70 -12z"/>
<path d="M1020 1860 l0 -290 75 0 75 0 0 125 0 125 120 0 120 0 0 55 0 55
-120 0 -120 0 0 55 0 55 125 0 125 0 0 55 0 55 -200 0 -200 0 0 -290z"/>
<path d="M2212 1872 c-56 -152 -102 -283 -102 -290 0 -10 18 -12 71 -10 l72 3
20 53 20 53 115 -3 115 -3 17 -50 17 -50 71 -3 c54 -2 72 0 72 10 0 7 -46 138
-102 291 l-102 277 -91 0 -90 0 -103 -278z m229 41 c17 -54 34 -104 37 -110 3
-10 -15 -13 -73 -13 -42 0 -75 4 -73 8 2 5 19 55 38 110 19 56 36 102 37 102
1 0 16 -44 34 -97z"/>
<path d="M2780 1865 l0 -285 70 0 70 0 0 201 c0 110 3 198 8 195 4 -2 34 -68
67 -146 l59 -141 50 3 49 3 61 143 61 144 3 -201 2 -201 70 0 70 0 0 285 0
285 -94 0 -94 0 -64 -151 -65 -151 -64 151 -64 151 -97 0 -98 0 0 -285z"/>
<path d="M3570 1865 l0 -285 205 0 205 0 0 55 0 55 -130 0 -130 0 0 65 0 65
120 0 120 0 0 55 0 55 -120 0 -120 0 0 55 0 55 125 0 125 0 0 55 0 55 -200 0
-200 0 0 -285z"/>
</g>
</svg>
